<?xml version="1.0" encoding="utf-8"?>
<!-- Generator: Adobe Illustrator 17.0.0, SVG Export Plug-In . SVG Version: 6.00 Build 0)  -->
<!DOCTYPE svg PUBLIC "-//W3C//DTD SVG 1.1//EN" "http://www.w3.org/Graphics/SVG/1.1/DTD/svg11.dtd">
<svg version="1.1" id="Layer_1" xmlns="http://www.w3.org/2000/svg" xmlns:xlink="http://www.w3.org/1999/xlink" x="0px" y="0px"
	 width="1032.144px" height="439.216px" viewBox="0 0 1032.144 439.216" enable-background="new 0 0 1032.144 439.216"
	 xml:space="preserve">
<g opacity="0.75">
	<g>
		<path fill="#FFFFFF" d="M398.805,229.647H217.587v1.882l13.168,0.627c55.807,2.51,61.451,8.784,61.451,94.745v33.255
			c0,33.255-1.254,41.412-15.676,52.078c-20.066,14.431-51.418,24.471-78.381,24.471c-100.955,0-133.562-108.549-133.562-217.098
			S97.193,2.51,198.148,2.51c65.213,0,106.599,45.177,123.529,97.882l6.898,21.333h1.881V0h-1.254
			c-15.049,18.196-27.59,30.118-38.877,30.118c-7.525,0-13.795-4.392-20.066-8.784C249.566,7.529,225.111,0,196.894,0
			C66.467,0,0,107.294,0,220.235c0,111.686,66.467,218.98,196.894,218.98c30.098,0,60.197-8.784,83.398-24.471
			c10.033-6.902,15.049-10.039,22.574-10.039c13.168,0,28.844,13.804,45.148,34.51h1.254V326.902
			c0-85.961,5.643-93.49,36.369-94.745l13.168-0.627V229.647z M447.72,71.529c0-42.039,29.471-69.02,81.517-69.02
			c52.045,0,102.209,33.882,121.021,97.255l6.898,21.961h1.881V0h-1.254c-14.422,17.569-27.59,30.118-38.25,30.118
			c-6.271,0-12.541-3.137-20.693-8.784C576.892,6.902,553.692,0,527.355,0c-68.349,0-123.529,44.549-123.529,111.059
			c0,141.176,232.009,115.451,232.009,242.823c0,57.726-42.012,82.823-97.82,82.823c-86.533,0-126.037-65.255-142.341-114.823
			l-7.525-23.216h-1.881v140.549h1.254c15.676-20.078,30.098-33.882,43.894-33.882c8.152,0,13.795,3.137,23.201,9.412
			c28.844,18.823,55.807,24.471,84.025,24.471c82.771,0,144.222-46.431,144.222-115.451
			C682.864,175.686,447.72,201.412,447.72,71.529z M797,71.529c0-42.039,29.471-69.02,81.517-69.02
			c52.045,0,102.209,33.882,121.021,97.255l6.898,21.961h1.881V0h-1.254c-14.422,17.569-27.59,30.118-38.25,30.118
			c-6.271,0-12.541-3.137-20.693-8.784C926.173,6.902,902.972,0,876.636,0c-68.349,0-123.529,44.549-123.529,111.059
			c0,141.176,232.009,115.451,232.009,242.823c0,57.726-42.012,82.823-97.82,82.823c-86.533,0-126.037-65.255-142.341-114.823
			l-7.525-23.216h-1.881v140.549h1.254c15.676-20.078,30.099-33.882,43.894-33.882c8.152,0,13.795,3.137,23.201,9.412
			c28.844,18.823,55.808,24.471,84.025,24.471c82.771,0,144.222-46.431,144.222-115.451C1032.144,175.686,797,201.412,797,71.529z"
			/>
	</g>
</g>
</svg>
