<?xml version="1.0" encoding="utf-8"?>
<!-- Generator: Adobe Illustrator 17.0.0, SVG Export Plug-In . SVG Version: 6.00 Build 0)  -->
<!DOCTYPE svg PUBLIC "-//W3C//DTD SVG 1.1//EN" "http://www.w3.org/Graphics/SVG/1.1/DTD/svg11.dtd">
<svg version="1.1" id="Layer_1" xmlns="http://www.w3.org/2000/svg" xmlns:xlink="http://www.w3.org/1999/xlink" x="0px" y="0px"
	 width="305px" height="390px" viewBox="0 0 305 390" enable-background="new 0 0 305 390" xml:space="preserve">
<path fill="none" d="M277.203,0H27.797C12.51,0,0,12.506,0,27.788v334.423C0,377.494,12.51,390,27.797,390h249.406
	C292.49,390,305,377.494,305,362.211V27.788C305,12.506,292.49,0,277.203,0z M152.5,14.182c1.957,0,3.547,1.589,3.547,3.546
	c0,1.96-1.589,3.545-3.547,3.545c-1.961,0-3.547-1.586-3.547-3.545C148.954,15.771,150.54,14.182,152.5,14.182z M152.5,382.909
	c-5.877,0-10.639-4.761-10.639-10.637c0-5.875,4.762-10.636,10.639-10.636c5.877,0,10.64,4.761,10.64,10.636
	C163.14,378.148,158.377,382.909,152.5,382.909z M269.535,354.545H35.465V35.454h234.07V354.545z"/>
</svg>
